<svg id="logo_big" width="209" height="471" viewBox="0 0 209 471" fill="none" xmlns="http://www.w3.org/2000/svg">
<path d="M59.7905 78.4484H72.2817V111.748C72.2817 117.402 70.4537 139.008 44.6334 139.008C18.5084 139.008 17.0612 117.402 17.0612 111.748V78.4484H29.5525V111.593C29.5525 118.95 31.4566 131.109 44.7857 131.109C58.4956 131.109 59.9428 119.338 59.9428 111.516V78.4484H59.7905ZM96.1979 78.4484H83.7066V137.149H125.293V129.25H96.1979V78.4484ZM166.118 78.4484L192.015 137.149H179.295L171.145 117.479C170.155 124.913 166.804 132.115 160.558 136.22C151.342 142.725 135.347 140.866 131.615 128.708C128.569 118.873 133.748 111.206 142.278 107.179C146.087 105.243 150.276 104.236 154.313 103.152C155.988 102.688 162.843 100.132 160.711 97.6539C160.254 97.4216 159.492 97.5765 158.959 97.6539C156.369 97.9637 152.485 99.7448 150.581 96.9569C148.905 93.3946 153.78 86.27 156.598 82.3979L154.998 78.4484H166.118ZM169.698 114.149L156.902 83.2498C154.237 86.8895 150.047 93.1623 151.266 96.3374C151.875 97.4216 153.323 97.499 154.617 97.3441C156.293 97.1892 158.045 96.4923 159.873 96.3374C160.254 96.3374 160.711 96.2599 161.244 96.6472C162.158 97.2667 162.462 98.5058 162.082 99.4351C161.472 101.139 160.025 101.991 158.654 102.765C154.922 104.933 150.581 105.476 146.772 107.566C140.374 111.051 138.927 117.944 140.984 124.681C142.964 131.418 150.885 134.981 158.045 132.27C164.824 129.715 169.165 123.132 170.308 115.698L169.698 114.149ZM70.2252 191.436C70.2252 169.365 88.4289 160.072 101.301 160.072C114.249 160.072 131.387 169.287 131.387 191.436C131.387 213.584 114.325 222.877 101.301 222.877C88.4289 222.8 70.2252 213.584 70.2252 191.436ZM81.7263 191.436C81.7263 205.298 87.3626 215.133 101.377 215.133C114.325 215.133 119.886 205.453 119.886 191.436C119.886 177.574 114.325 167.893 101.377 167.893C87.3626 167.893 81.7263 177.496 81.7263 191.436ZM148.829 176.644L178.305 220.786H179.448H189.273H191.863V162.085H179.524V206.072L150.047 162.085H148.829H139.079H136.49V220.786H148.753V176.644H148.829ZM33.5893 196.082V187.951V187.719C35.1888 187.099 36.5598 186.17 37.9308 185.318C40.5204 183.769 43.4909 182.607 44.7857 184.776C45.1665 185.395 45.395 186.092 45.7759 186.789C46.9184 189.5 50.1173 190.894 53.0117 190.352C56.2868 189.887 59.1811 188.648 62.2278 187.641C62.6848 187.486 63.0656 187.331 63.6749 187.099L57.0485 180.671C56.5153 183.227 54.4588 185.937 52.0977 187.099C50.9552 187.641 49.8127 187.796 48.8225 187.176C47.6039 186.479 47.223 184.853 46.5375 183.692C46.0805 182.917 45.395 182.143 44.4811 181.678C41.1297 180.129 37.5499 181.91 34.2748 182.143C34.0463 182.143 33.8178 182.22 33.5893 182.22V170.836H68.0164V162.085H21.098V220.786H33.5893V196.082ZM127.959 292.807H93.4559V275.073H122.094V267.096H93.4559V250.988H127.198V242.547H81.0408V301.248H127.959V292.807ZM148.829 301.248H136.49V242.547H145.782H148.829H169.241C180.362 242.547 189.501 247.968 189.501 260.281C189.501 269.652 182.418 275.537 174.725 277.396C177.543 279.719 179.143 283.127 178.229 288.393C177.772 291.181 177.543 295.053 180.285 295.827C183.789 296.756 186.531 292.265 187.902 289.787C187.978 289.554 188.13 289.322 188.207 289.245L196.509 294.743C192.396 301.713 182.951 308.527 175.715 301.635C171.145 297.298 174.573 291.413 175.411 286.302C176.401 280.106 169.317 278.403 162.996 278.17H148.905V301.248H148.829ZM148.829 269.729H166.423C171.907 269.729 178 266.786 178 260.359C178 253.621 171.907 250.679 166.423 250.988H148.829V269.729ZM31.4566 301.248H22.0882V242.547H33.5131V242.47H53.0117C63.4464 242.47 71.6724 248.897 71.6724 259.042C71.6724 264.153 69.7682 267.793 66.7216 270.349C71.9009 273.059 75.0999 277.551 75.0999 283.901C75.0999 296.292 66.0361 301.248 54.8397 301.248H34.4271H31.4566ZM34.4271 267.096H50.1174C55.8298 267.096 60.1713 264.308 60.1713 259.042C60.1713 253.776 55.906 250.988 50.1174 250.988H34.4271V267.096ZM34.4271 292.729H52.0215C58.8003 292.729 63.5988 290.638 63.5988 283.824C63.5988 277.009 58.8003 274.918 52.0215 274.918H48.9749H34.4271V292.729ZM148.829 385.272H136.49V326.571H145.782H148.829H169.241C180.362 326.571 189.501 331.992 189.501 344.306C189.501 353.908 182.037 359.871 174.116 361.575L190.644 385.272H176.553L160.711 362.117H148.829V385.272ZM148.829 353.753H166.423C171.907 353.753 178 350.811 178 344.383C178 337.646 171.907 334.703 166.423 335.013H148.829V353.753ZM31.4566 385.35H22.0882V326.649H33.5131V326.571H53.0117C63.4464 326.571 71.6724 332.999 71.6724 343.144C71.6724 348.255 69.7682 351.895 66.7216 354.45C71.9009 357.161 75.0999 361.652 75.0999 368.003C75.0999 380.393 66.0361 385.35 54.8397 385.35H34.4271H31.4566ZM34.4271 351.12H50.1174C55.8298 351.12 60.1713 348.332 60.1713 343.066C60.1713 337.8 55.906 335.013 50.1174 335.013H34.4271V351.12ZM34.4271 376.831H52.0215C58.8003 376.831 63.5988 374.74 63.5988 367.925C63.5988 361.11 58.8003 359.019 52.0215 359.019H48.9749H34.4271V376.831ZM104.729 334.47C110.365 336.252 118.286 340.821 127.274 337.723V325.874C122.932 329.282 112.954 331.605 105.262 329.359C99.016 327.501 92.4657 324.635 81.117 328.275V339.814C91.2471 334.161 97.7974 332.302 104.729 334.47ZM104.729 357.083C110.365 358.865 118.286 363.434 127.274 360.336V348.487C122.932 351.895 112.954 354.218 105.262 351.972C99.016 350.114 92.4657 347.248 81.117 350.888V362.427C91.2471 356.774 97.7974 354.915 104.729 357.083ZM104.729 378.612C110.365 380.393 118.286 384.962 127.274 381.865V370.016C122.932 373.424 112.954 375.747 105.262 373.501C99.016 371.642 92.4657 368.777 81.117 372.417V383.956C91.2471 378.302 97.7974 376.366 104.729 378.612ZM209 106.25V364.673C209 393.094 198.108 419.734 178.381 439.791C158.654 459.848 132.377 470.923 104.5 470.923C76.6232 470.923 50.3458 459.848 30.6188 439.791C10.8918 419.811 0 393.094 0 364.673V106.25C0 77.8288 10.8918 51.1889 30.6188 31.1315C50.3458 11.0742 76.6232 0 104.5 0C132.377 0 158.654 11.0742 178.381 31.1315C198.108 51.1889 209 77.9063 209 106.25ZM205.192 314.568H3.80831V364.673C3.80831 421.205 48.8987 467.05 104.5 467.05C160.101 467.05 205.192 421.282 205.192 364.673V314.568ZM205.192 232.867H3.80831V311.78H205.192V232.867ZM205.192 150.237H3.80831V230.079H205.192V150.237ZM205.192 106.25C205.192 49.7175 160.101 3.87208 104.5 3.87208C48.8987 3.87208 3.80831 49.7175 3.80831 106.25V147.371H205.192V106.25Z" fill="#F4F4EE"/>
</svg>
