<?xml  version="1.0" encoding="utf-8"?>
<!-- Generator: Adobe Illustrator 19.0.1, SVG Export Plug-In . SVG Version: 6.00 Build 0)  -->
<svg id="logo" version="1.1"  xmlns="http://www.w3.org/2000/svg" xmlns:xlink="http://www.w3.org/1999/xlink" x="0px" y="0px"
	 viewBox="1303.2 175.8 274.4 608.1" style="enable-background:new 1303.2 175.8 274.4 608.1;" xml:space="preserve">
<path style="fill:#0A0A09;" class="st0" d="M1440.4,175.8c-36.7,0-71.1,14.3-97,40.2c-25.9,25.9-40.2,60.4-40.2,97v333.7c0,36.7,14.3,71.1,40.2,97
	c25.9,25.9,60.4,40.2,97,40.2c36.6,0,71.1-14.3,97-40.2c25.9-25.9,40.2-60.4,40.2-97V313c0-36.7-14.3-71.1-40.2-97
	C1511.5,190,1477.1,175.8,1440.4,175.8L1440.4,175.8z"/>
<path style="fill:#C2D2CB;" class="st1" d="M1381.7,277.1h16.4v43c0,7.3-2.4,35.2-36.3,35.2c-34.3,0-36.2-27.9-36.2-35.2v-43h16.4v42.8
	c0,9.5,2.5,25.2,20,25.2c18,0,19.9-15.2,19.9-25.3v-42.7H1381.7z M1429.5,277.1h-16.4v75.8h54.6v-10.2h-38.2L1429.5,277.1
	L1429.5,277.1z M1521.2,277.1l34,75.8h-16.7l-10.7-25.4c-1.3,9.6-5.7,18.9-13.9,24.2c-12.1,8.4-33.1,6-38-9.7
	c-4-12.7,2.8-22.6,14-27.8c5-2.5,10.5-3.8,15.8-5.2c2.2-0.6,11.2-3.9,8.4-7.1c-0.6-0.3-1.6-0.1-2.3,0c-3.4,0.4-8.5,2.7-11-0.9
	c-2.2-4.6,4.2-13.8,7.9-18.8l-2.1-5.1L1521.2,277.1L1521.2,277.1z M1526,323.2l-16.8-39.9c-3.5,4.7-9,12.8-7.4,16.9
	c0.8,1.4,2.7,1.5,4.4,1.3c2.2-0.2,4.5-1.1,6.9-1.3c0.5,0,1.1-0.1,1.8,0.4c1.2,0.8,1.6,2.4,1.1,3.6c-0.8,2.2-2.7,3.3-4.5,4.3
	c-4.9,2.8-10.6,3.5-15.6,6.2c-8.4,4.5-10.3,13.4-7.6,22.1c2.6,8.7,13,13.3,22.4,9.8c8.9-3.3,14.6-11.8,16.1-21.4L1526,323.2z
	 M1395.4,422.9c0-28.5,23.9-40.5,40.8-40.5c17,0,39.5,11.9,39.5,40.5s-22.4,40.6-39.5,40.6C1419.3,463.5,1395.4,451.6,1395.4,422.9z
	 M1410.5,422.9c0,17.9,7.4,30.6,25.8,30.6c17,0,24.3-12.5,24.3-30.6c0-17.9-7.3-30.4-24.3-30.4
	C1417.9,392.6,1410.5,405,1410.5,422.9z M1498.6,403.9l38.7,57h1.5h12.9h3.4v-75.8h-16.2V442l-38.6-56.8h-1.6h-12.8h-3.4V461h16.1
	L1498.6,403.9L1498.6,403.9z M1347.3,429v-10.5v-0.3c2.1-0.8,3.9-2,5.7-3.1c3.4-2,7.3-3.5,9-0.7c0.5,0.8,0.8,1.7,1.3,2.6
	c1.5,3.5,5.7,5.3,9.5,4.6c4.3-0.6,8.1-2.2,12.1-3.5c0.6-0.2,1.1-0.4,1.9-0.7l-8.7-8.3c-0.7,3.3-3.4,6.8-6.5,8.3
	c-1.5,0.7-3,0.9-4.3,0.1c-1.6-0.9-2.1-3-3-4.5c-0.6-1-1.5-2-2.7-2.6c-4.4-2-9.1,0.3-13.4,0.6c-0.3,0-0.6,0.1-0.9,0.1v-14.7h45.2
	v-11.3H1331v75.8h16.4L1347.3,429L1347.3,429z M1471.2,553.8h-45.3v-22.9h37.6v-10.3h-37.6v-20.8h44.3V489h-60.6v75.8h61.7v-11
	H1471.2z M1498.6,564.8h-16.2V489h12.2h4h26.8c14.6,0,26.6,7,26.6,22.9c0,12.1-9.3,19.7-19.4,22.1c3.7,3,5.8,7.4,4.6,14.2
	c-0.6,3.6-0.9,8.6,2.7,9.6c4.6,1.2,8.2-4.6,10-7.8c0.1-0.3,0.3-0.6,0.4-0.7l10.9,7.1c-5.4,9-17.8,17.8-27.3,8.9
	c-6-5.6-1.5-13.2-0.4-19.8c1.3-8-8-10.2-16.3-10.5h-18.5L1498.6,564.8L1498.6,564.8z M1498.6,524h23.1c7.2,0,15.2-3.8,15.2-12.1
	c0-8.7-8-12.5-15.2-12.1h-23.1V524z M1344.5,564.7h-12.2v-75.8h15v-0.1h25.6c13.7,0,24.5,8.3,24.5,21.4c0,6.6-2.5,11.3-6.5,14.6
	c6.8,3.5,11,9.3,11,17.5c0,16-11.9,22.4-26.6,22.4h-26.8L1344.5,564.7L1344.5,564.7z M1348.4,520.6h20.6c7.5,0,13.2-3.6,13.2-10.4
	c0-6.8-5.6-10.4-13.2-10.4h-20.6V520.6z M1348.4,553.8h23.1c8.9,0,15.2-2.7,15.2-11.5s-6.3-11.5-15.2-11.5h-4h-19.1V553.8z
	 M1498.6,673.3h-16.2v-75.8h12.2h4h26.8c14.6,0,26.6,7,26.6,22.9c0,12.4-9.8,20.1-20.2,22.3l21.7,30.6H1535l-20.8-29.9h-15.6V673.3z
	 M1498.6,632.6h23.1c7.2,0,15.2-3.8,15.2-12.1c0-8.7-8-12.5-15.2-12.1h-23.1V632.6z M1344.5,673.3h-12.2v-75.8h15v-0.1h25.6
	c13.7,0,24.5,8.3,24.5,21.4c0,6.6-2.5,11.3-6.5,14.6c6.8,3.5,11,9.3,11,17.5c0,16-11.9,22.4-26.6,22.4h-26.8L1344.5,673.3
	L1344.5,673.3z M1348.4,629.2h20.6c7.5,0,13.2-3.6,13.2-10.4c0-6.8-5.6-10.4-13.2-10.4h-20.6V629.2z M1348.4,662.4h23.1
	c8.9,0,15.2-2.7,15.2-11.5s-6.3-11.5-15.2-11.5h-4h-19.1V662.4z M1440.7,607.7c7.4,2.3,17.8,8.2,29.6,4.2v-15.3
	c-5.7,4.4-18.8,7.4-28.9,4.5c-8.2-2.4-16.8-6.1-31.7-1.4v14.9C1423,607.3,1431.6,604.9,1440.7,607.7z M1440.7,636.9
	c7.4,2.3,17.8,8.2,29.6,4.2v-15.3c-5.7,4.4-18.8,7.4-28.9,4.5c-8.2-2.4-16.8-6.1-31.7-1.4v14.9C1423,636.5,1431.6,634,1440.7,636.9z
	 M1440.7,664.6c7.4,2.3,17.8,8.2,29.6,4.2v-15.3c-5.7,4.4-18.8,7.4-28.9,4.5c-8.2-2.4-16.8-6.1-31.7-1.4v14.9
	C1423,664.3,1431.6,661.8,1440.7,664.6z M1577.6,313v333.7c0,36.7-14.3,71.1-40.2,97s-60.4,40.2-97,40.2c-36.6,0-71.1-14.3-97-40.2
	c-25.9-25.9-40.2-60.4-40.2-97V313c0-36.7,14.3-71.1,40.2-97c25.9-25.9,60.4-40.2,97-40.2c36.6,0,71.1,14.3,97,40.2
	C1563.3,241.9,1577.6,276.3,1577.6,313z M1572.6,582h-264.4v64.7c0,73,59.2,132.2,132.2,132.2s132.2-59.2,132.2-132.2V582z
	 M1572.6,476.5h-264.4v101.9h264.4V476.5z M1572.6,369.7h-264.4v103.1h264.4V369.7z M1572.6,313c0-73-59.2-132.2-132.2-132.2
	S1308.2,240,1308.2,313v53.1h264.4V313z"/>
</svg>
